<svg viewBox="0 0 720 330" role="img" aria-label="電流天平示意圖" xmlns="http://www.w3.org/2000/svg">
 <defs>
   <marker id="arr10125b" markerWidth="10" markerHeight="10" refX="8" refY="3" orient="auto"><path d="M0,0 L8,3 L0,6 Z" fill="#111827"/></marker>
   <style>
     .label{font:22px sans-serif;paint-order:stroke;stroke:#fff;stroke-width:7px;stroke-linejoin:round}
     .small{font:20px sans-serif;paint-order:stroke;stroke:#fff;stroke-width:7px;stroke-linejoin:round}
   </style>
 </defs>
 <rect x="110" y="76" width="500" height="150" fill="#eff6ff" stroke="#2563eb" stroke-width="3"/>
 <text class="label" x="360" y="58" text-anchor="middle">螺線管內近似均勻磁場 B</text>
 <g font-size="24">
   <text x="165" y="112">×</text><text x="235" y="112">×</text><text x="305" y="112">×</text><text x="375" y="112">×</text><text x="445" y="112">×</text><text x="515" y="112">×</text>
   <text x="165" y="204">×</text><text x="235" y="204">×</text><text x="305" y="204">×</text><text x="375" y="204">×</text><text x="445" y="204">×</text><text x="515" y="204">×</text>
 </g>
 <path d="M230 238 V160 H490 V238" fill="none" stroke="#111827" stroke-width="5" stroke-linecap="round" stroke-linejoin="round"/>
 <line x1="250" y1="160" x2="470" y2="160" stroke="#0f766e" stroke-width="6" marker-end="url(#arr10125b)"/>
 <text class="label" x="286" y="146">I₁</text>
 <line x1="360" y1="160" x2="360" y2="106" stroke="#dc2626" stroke-width="4" marker-end="url(#arr10125b)"/>
 <text class="label" x="379" y="124">F</text>
 <line x1="168" y1="132" x2="168" y2="190" stroke="#b45309" stroke-width="4" marker-end="url(#arr10125b)"/>
 <text class="label" x="184" y="177">w</text>
 <line x1="250" y1="255" x2="470" y2="255" stroke="#64748b" stroke-width="2" marker-end="url(#arr10125b)" marker-start="url(#arr10125b)"/>
 <text class="label" x="360" y="282" text-anchor="middle">ℓ_b</text>
 <text x="360" y="314" text-anchor="middle" font-size="21">等臂平衡：F = I₁ℓ_bB = w</text>
</svg>