<svg viewBox="0 0 720 380" role="img" aria-label="傳統鑷子夾球受力圖" xmlns="http://www.w3.org/2000/svg">
 <defs>
   <marker id="arr10826a3" markerWidth="10" markerHeight="10" refX="8" refY="3" orient="auto"><path d="M0,0 L8,3 L0,6 Z" fill="#111827"/></marker>
   <style>
     .label{font:22px sans-serif;paint-order:stroke;stroke:#fff;stroke-width:7px;stroke-linejoin:round}
     .small{font:20px sans-serif;paint-order:stroke;stroke:#fff;stroke-width:7px;stroke-linejoin:round}
   </style>
 </defs>
 <circle cx="360" cy="178" r="76" fill="#fff" stroke="#111827" stroke-width="3"/>
 <line x1="250" y1="50" x2="306" y2="132" stroke="#111827" stroke-width="6" stroke-linecap="round"/>
 <line x1="470" y1="50" x2="414" y2="132" stroke="#111827" stroke-width="6" stroke-linecap="round"/>
 <line x1="360" y1="72" x2="360" y2="304" stroke="#94a3b8" stroke-width="2" stroke-dasharray="7 7"/>
 <line x1="306" y1="132" x2="345" y2="164" stroke="#0f766e" stroke-width="4" marker-end="url(#arr10826a3)"/>
 <line x1="414" y1="132" x2="375" y2="164" stroke="#0f766e" stroke-width="4" marker-end="url(#arr10826a3)"/>
 <text class="label" x="323" y="158">F</text>
 <text class="label" x="386" y="158">F</text>
 <line x1="306" y1="132" x2="274" y2="86" stroke="#b45309" stroke-width="4" marker-end="url(#arr10826a3)"/>
 <line x1="414" y1="132" x2="446" y2="86" stroke="#b45309" stroke-width="4" marker-end="url(#arr10826a3)"/>
 <text class="label" x="222" y="92">μF</text>
 <text class="label" x="458" y="92">μF</text>
 <line x1="360" y1="178" x2="360" y2="305" stroke="#dc2626" stroke-width="4" marker-end="url(#arr10826a3)"/>
 <text class="label" x="377" y="300">mg</text>
 <path d="M360 100 A58 58 0 0 1 397 116" fill="none" stroke="#111827" stroke-width="2"/>
 <text class="small" x="398" y="116">θ</text>
 <text x="360" y="350" text-anchor="middle" font-size="21">鉛直平衡：2μF cosθ = 2F sinθ + mg</text>
</svg>