<svg viewBox="0 0 720 380" role="img" aria-label="光學鑷子光路與動量變化示意圖" xmlns="http://www.w3.org/2000/svg">
 <defs>
   <marker id="arr10826b3" markerWidth="10" markerHeight="10" refX="8" refY="3" orient="auto"><path d="M0,0 L8,3 L0,6 Z" fill="#111827"/></marker>
   <style>
     .label{font:21px sans-serif;paint-order:stroke;stroke:#fff;stroke-width:7px;stroke-linejoin:round}
   </style>
 </defs>
 <circle cx="360" cy="184" r="82" fill="#fff" stroke="#111827" stroke-width="3"/>
 <text class="label" x="360" y="191" text-anchor="middle">O</text>
 <text class="label" x="360" y="62" text-anchor="middle">C</text>
 <line x1="360" y1="70" x2="292" y2="250" stroke="#64748b" stroke-width="2" stroke-dasharray="8 7"/>
 <line x1="360" y1="70" x2="428" y2="250" stroke="#64748b" stroke-width="2" stroke-dasharray="8 7"/>
 <line x1="118" y1="318" x2="292" y2="250" stroke="#0f766e" stroke-width="4" marker-end="url(#arr10826b3)"/>
 <line x1="602" y1="318" x2="428" y2="250" stroke="#0f766e" stroke-width="4" marker-end="url(#arr10826b3)"/>
 <line x1="292" y1="250" x2="318" y2="110" stroke="#0f766e" stroke-width="4" marker-end="url(#arr10826b3)"/>
 <line x1="428" y1="250" x2="402" y2="110" stroke="#0f766e" stroke-width="4" marker-end="url(#arr10826b3)"/>
 <line x1="318" y1="110" x2="205" y2="76" stroke="#0f766e" stroke-width="4" marker-end="url(#arr10826b3)"/>
 <line x1="402" y1="110" x2="515" y2="76" stroke="#0f766e" stroke-width="4" marker-end="url(#arr10826b3)"/>
 <text class="label" x="132" y="306">P₃</text>
 <text class="label" x="565" y="306">P₄</text>
 <text class="label" x="196" y="66">P₃′</text>
 <text class="label" x="492" y="66">P₄′</text>
 <line x1="210" y1="128" x2="210" y2="176" stroke="#2563eb" stroke-width="4" marker-end="url(#arr10826b3)"/>
 <line x1="510" y1="128" x2="510" y2="176" stroke="#2563eb" stroke-width="4" marker-end="url(#arr10826b3)"/>
 <text class="label" x="154" y="123">ΔP₃</text>
 <text class="label" x="523" y="123">ΔP₄</text>
 <line x1="360" y1="184" x2="360" y2="92" stroke="#dc2626" stroke-width="5" marker-end="url(#arr10826b3)"/>
 <text class="label" x="376" y="112">F</text>
 <text x="360" y="350" text-anchor="middle" font-size="21">光子總動量變化向下；微粒受力向上，朝焦點 C</text>
</svg>